<svg xmlns="http://www.w3.org/2000/svg" viewBox="0 0 1100 400"><defs><style>.cls-1{fill:#4c0808;}.cls-2{fill:#fff;}</style></defs><title>Dilara02</title><g id="Ebene_2" data-name="Ebene 2"><rect class="cls-1" width="1100" height="400"/></g><g id="Ebene_4" data-name="Ebene 4"><polygon class="cls-2" points="224.77 178.88 239.24 179.27 252.22 177.86 247.21 163.87 239.74 150.31 247.14 135.22 256.23 122.14 249.66 107.38 239.24 92.1 245.33 107.6 247.57 121.78 235.15 136.8 219.66 149.92 223.46 164.24 224.77 178.88"/><polygon class="cls-2" points="316.43 241.62 316.17 256.24 316.94 270.61 331.72 264.41 345.33 254.85 358.3 267.1 373.35 275.95 386.7 264.54 401.29 256.24 387.51 261.21 373.72 264.52 359.81 251.03 345.25 237.42 330.96 238.49 316.43 241.62"/><polygon class="cls-2" points="162.82 271.52 160.34 256.24 161.19 242.61 147.88 250.29 133.26 256.41 118.46 247.98 105.14 236.66 91.11 246.93 78.31 256.24 91.03 251.46 105.11 246.93 119.77 260.37 133.91 273.46 147.44 273.55 162.82 271.52"/><polygon class="cls-2" points="174.21 212.58 183.6 200.6 192.51 191.58 179.62 184.44 162.86 182.22 160.15 164.69 158.74 146.75 141.1 143.81 123.13 140.13 137.95 147.31 149.33 155.39 152.23 174.51 150.96 194.37 162.59 202.55 174.21 212.58"/><polygon class="cls-2" points="284.54 191.06 295 200.15 303.46 209.17 308.73 195.96 312.95 179.88 330.29 176.31 347.18 174.52 348.74 157.58 353.19 141.96 347.77 154.92 341.27 169.34 320.64 169.77 300.3 166.78 292.6 179.58 284.54 191.06"/></g><g id="Ebene_1" data-name="Ebene 1"><polygon class="cls-1" points="324.3 255 323.03 273.72 315.48 290.87 307.29 307.86 292.93 320.12 277.3 330.38 259.11 334.33 241 336.87 222.38 336.58 204.66 330.47 189.38 319.73 177.64 305.52 166.55 290.85 159.95 273.5 158.91 255 159.95 236.5 166.8 219.27 176.65 203.68 189.02 189.82 205.64 181.56 222.42 173.6 241 170.22 259.39 174.42 276.54 181.19 291.55 191.61 305.97 203.19 314.57 219.57 320.5 236.85 324.3 255"/><polygon class="cls-2" points="305.16 274.37 310.63 255 305.73 237.66 301.1 220.3 289.54 206.46 275.46 195.31 259.08 187.52 241 186.35 223.66 190.28 206.25 194.81 192.06 206.06 182.47 221.21 173.67 236.96 174.48 255 176.02 276.93 194.8 275.9 213.28 274.24 231.75 274.07 250.23 278 268.71 274.89 287.12 274.29 305.16 274.37"/></g><g id="Ebene_3" data-name="Ebene 3"><path class="cls-2" d="M506.21,147.2c.5-1,2-9.5,6.5-14,6-6.5,23-16.25,36.5-21.25,34.5-11,34-8.25,50.25-12C609,97.7,617.71,98.7,627,97.7c.5,0,1.25,2.25,4,2.5,2,.25,3-2.5,3.5-2.5,5.5-.5,9.5-.5,14-.5,16.5,0,35.5,9.75,47,20.25,3.75,3.25.25,4.75,2,9.25.5,1,4.5.5,4.75,1.5l3,8.5c2,8,3,11.25,2.25,16-1.25,8.5,0,6.75.25,9.25s-3,5-1.75,6.5,1.25,5.5,1.25,7.5-8-.25-6.5,1.75,8,.25-1,17.25c-4.75,8.75-2.25,6.25-2.75,10.5a8.36,8.36,0,0,1-3.25,6s-1.5,7-3.5,8.75-3.75-.5-8,6-2.5,6.75-3,8.5-.75,3.75-2.5,4.25A8.77,8.77,0,0,0,672,243.2a11.84,11.84,0,0,1-3,4.75c-1.5,1.25-6,7.25-8.5,8.5s-8.75.5-7.5,2.5,2.5,3.75,2.25,3.75a11.59,11.59,0,0,0-4.5,2.5,94.28,94.28,0,0,1-12.25,7.25c-.5,0-9,.75-7.25,2.5s-.75,3.5-.75,3.5a85.65,85.65,0,0,1-10.25,8c-7.5,5.25-8.5-.5-9.75,3s-3.75,3.75-3.75,3.75-6-3.5-5.5-1.25-2.5,3.5-2.5,3.5a30.4,30.4,0,0,0-4.25,2c-.5.5-26,3.75-30.25,4s-5-2.5-6-1c-2,3.5-10.5,2.5-11.75,3s-29.25.25-39.5-3.25-17-6-16.5-7.25-1.75-3-3.75-2.5-11.75-3.75-19-15.25c-4.5-7-9.5-15.75-8.25-24.75.5-2.75,2.75-3.5,1-6.75-2-3.75,3.75-17,3.75-17s10.25-18.5,31-28.25c.25-.5,2,3,4.5,0s2.5-4.25,5.75-6,21.75-5.75,30-7.25c13.75-2.5,28-1.5,38.5-1.25,1.75,0,5.75-9,7-11,11.5-18.25,11-11.75,12-12.25s2-5,2.75-8.5,10-8.25,17.25-17a79.25,79.25,0,0,1,25-19.75c8.5-4.25,9.25.25,8,.75s-5,1.75-4.25,1.75-2.5,4-4.25,4.75-5,1-5.75,1.25-1,3.75-2.75,5.5-4.25,5.5-5.5,5.5-1.75,3.75-1.75,3.75-.25,4.25-2.5,6.75S614,151,614,151s-4.25.75-3.75,2.5a8.11,8.11,0,0,1-.5,4.25s-2.75,6.25-6.25,9.75a77.86,77.86,0,0,0-6,6.75l-5.75,13.25S606.46,190,618,196.2s14.5,12.25,16.5,18.25.75,9.5-1.75,6c-.75-1.25-5-4.25-5.75-4.25s3-2,3-2-3.5-3-5-2.75-14.5-10.5-15-10.75a211.21,211.21,0,0,0-21.5-7.75c-1.25-.5-8,10.25-8,10.25s-3.25,3.75-5,3.75-2,1.5-2,3.75-1.25,6-1.25,5.5-3.75,4-4.25,5-3.5,2.25-5.25,6.5-1.75,9-3,7.25-2.25-1.25-2.75,1.25-2.5,6.75-3,6.25-5.5,5.75-5.5,6.5-6.25,5.5-9.75,9.75-4,5.75-4.25,6.25-7,7-18.5,12.25a71.23,71.23,0,0,1-22,6s-1.75-2,.75-4.25,9.25-.75,14.75-5,14-13.5,20-23.5c.5,0,4.5.25,4.75-3.25s-.25-2.75,2.75-7.75a103.65,103.65,0,0,1,7.25-10.5c-.25.5,1.75,1.25,3-3s3.75-6,4.25-6.75a131.13,131.13,0,0,1,9.25-14c4.75-6,6.75-11,8.5-12.75s-11.25-5.5-29.5-3c-20.5,2.75-25.75,7.5-33.25,12s-12.75,5.75-13.5,9.25-1,6.5-3.25,5-5-.75-5.25,1-.75,4.5-.75,4.5,1.5,1.5.5,2.75-2.5,5.25-2.75,5.5l-4,5.75s-2.5-3.5-3-1-2.25,5.5-2.25,6.5,3.25-2,2.5,1-2,9.75-2.5,9.75,1.5,6.75.5,8.5c-1.5,2.5,1.75,6.75,2.5,9.25s.25,6.25,9,14.75c.25.25-1.25,1-.75,1.5.25.25,2.75.25,3,.5,6,5,15.5,9.5,27.25,11.75.75.25.5,1.75,1.25,1.75s2.5-1,3.25-1c8,1.25,16.5,1,26-.5,5-1,12.5-3.75,15-3,2.25.75,4.75-1,7-1.5,16.5-4,30.25-8.75,35.5-12,7.5-4.75,7.75-7.75,11.25-7.25s4.75,0,6-3.75,9.75-5.75,18.25-15,20.25-16.25,33.5-37.75c13-21,9.5-25.5,11.5-24.75s3.25-4,3.25-6.5,3.5-10,3.5-10,3.5-18,1.75-33.75c0-.75,1.75-3,1.5-3.75-.25-1-2-.5-2.25-1.5-3.25-13.5-6.5-27.25-26.5-30-2.5,0-5.25-4-9.25-4-1.5,0-6.25.25-7.75.25-27-.5-32.5,1.5-40.5,3.25s-31,9.5-36,12.5c-5.75,3.5-8.25-3.75-9.25-1l-1.5,4.5s3.5,1.5-11,6.25c-1.25.25-4.75-1.5-4.75-1.5s-5.75,4.75-6.5,6c-8.5,10.25-8.5,3.75-9,5.25-.75,1.25-2,4.5-4,3.75-2.25-.25-1.25.5-4,4.25s-5,3.25-7.25,9l-4,8c-.75,1.75-2,2.75-2.5-.25C505.21,157.7,504.46,152,506.21,147.2Z"/><path class="cls-2" d="M713.71,211.2c8.25-3.75,12.75-4.25,17.5-4.5,3.5-.25-2,10.75-3,12.5-5.25,10.75-5.25,4.25-7,6.5-.5.5,1,1.5-1.5,5-2.25,3-2.5,4-7,4.75-2,.25,1.75,2.25,1.75,2.25s-3,2.25-7.25,9.75c-2.75,4.75-3.75,9-5.5,9.5-1.25.5-.75,3-.75,4,0,2.75,5.25-.75,8-3.25a206.56,206.56,0,0,1,18-13.5c6.5-4,2.75-2.25,7.75-5,4.75-2.75,9.25-3.5,11.75-1,3.75,3.5,1.75,3.75,0,3.5s-5.25,0-7.25,1.25c-1.75,1.25-.75-.75-4,.5-3,1-3.25,2.75-6.5,3.25s0,1.25-1.5,2c-1.5.5-2.5,1.75-4.5,3.25-2,1.75-3,.75-3.25.5s-2.75,4.5-3.25,4.25-2.75,1.75-4.5,3.75c-1.5,1.75-4.5,2-6,3.5-1.75,1.75-3.75,2-8,7.5-3.75,5-6,3.75-7.25,2.25s-2.5-2.25-3.25-6c-1-4.5-.75-6.75,1.75-11.5,1.5-2.75,6.5-11,8.5-16,5.25-13.5,2.25-2.5,6.25-9l9.5-13.75c2.5-3.5,1-3.5-.5-2.75a43.87,43.87,0,0,0-6,2.75c-1.75,1.25-3.5,0-6.25-2.5S704.71,215.2,713.71,211.2Zm28.25-38c3.25-5.25,4-3.25,5.5-8.75.75-2.5,1.75-4.75,2.25-6.25s1-2,2.5-2,2,3,3,4.25c2.75,3.5,7.75,4.25,4.75,9-.75,1.25-1.25,1-1.5,2.25s-.25-.75-2.75,2.5c-3,4.25-6.75,4.5-7.25,4.5-.25,0,0,1,.25,1.25a27.87,27.87,0,0,0-3.25.75c-.75.25-3,0-4.75,1s-7,0-5.25-2.25C736.71,178,738.71,178.45,742,173.2Z"/><path class="cls-2" d="M729,264.2c0-6.25,11-22,11-22,1.75-1.5,8.25-10.5,10.75-16.75C752,222,758,216,762,211.45c4.25-4.75,8.5-13.25,11.5-18.25s10-13.5,16.5-23.5c1.5-2.25,1.25,2.25,3.25-5,1-3.75,3.75-5,5.75-7.75,16-21,25.75-35.25,29.5-35.25,1.75,0,2.25-3.75,4.25-5.5l4.5-4.25s11-11.75,20.5-17.75c11-7,21-9,26.25-9,4.75,0,8.5,2.25,8.75,2.75A15.38,15.38,0,0,1,893,91.2c0,1.5-.25,2.25-1.25,2.25-1.5,0-4.25-4-8.75-4-5,0-12.25,3.25-12.75,3.5-2,1.25-11.75,9-11.75,9.25v1c0,.75-.5,1-1,1.25-4.5,1.5-5.75,6.5-6.25,6.5-.25,0-1-.25-1.5-.25-.25,0-.5,0-.5.5a5.09,5.09,0,0,0,.25,1.25c0,1.75-4.75,3-4.75,4a3,3,0,0,0,.25,1.25l-3,3.5c.75-1-6.75,6-6.75,5.5v.75c0-.25-3.25,9-5.5,9-.75,0-1.25-.75-1.5-.75s-.5.5-.5,1.75c0,1.5-9.75,13.5-15,21.75-1.5,2,.25,2-5.5,9-5.5,6.75-10.5,12.5-10.5,12.75s-3,.75-3,2.5c0,4-.75,2.5-2,5.5L790,193c-2-2.25-7.25,13.25-9,12.75a8.82,8.82,0,0,0-3-1.25.66.66,0,0,0-.75.75c0,1.75,1,2.5,1,3.5,0,4-6.5,9.75-7.75,9.75a6.46,6.46,0,0,1-2,2.75c-.5,0-1-.5-1.5-.75-.25,0-.5,0-.5.25a3.73,3.73,0,0,0,.75,1.75c.25,2.5-6.25,6.75-6.25,8.25,0,2.75-3.5,9.75-4.25,9.5,0,0-.25-1-1-1-.25,0-2.25,2.25-2.25,3.5,0,.5.5.25.5.5s-.25.75-1,1.75l-4.5,6.25h-1c-.75,0-1.75.25-1.75,1.25,0,1.5,1.25,1.25,1.25,2a2.28,2.28,0,0,1-.75,1.25,19.69,19.69,0,0,0-5,8.75,1.58,1.58,0,0,0,1.25,1.5c2-1,4.75-3.5,8-5s3.5-3.5,5-4.5l8.75-6.25c3-2,4-2.5,8.25-5s4.75-3.75,8.5-5.75,11.5-4,13.75-1.75,6,4.75,2,4.5a21.77,21.77,0,0,0-10,2.25c-1.25.75-4.5.25-6.25.5a4.3,4.3,0,0,0-2.75,2s-7.75,4-11.5,6.25c-3.5,2-2.5,2.5-7,5.5l-2.75.75c-.75.5-.25,1.25-.75,1.75-4,3-4,4.5-9.75,8.75s-6,5-10,5S729,267.45,729,264.2Z"/><path class="cls-2" d="M857.45,206.45c1.75-.25,7.25-1.75,8,.5.5,1.25-2.5,5.5-5,7.75-1.75,1.5-3.25,2-5,4s-1.5,4.5-3,6-2-1.5-2.75-2.25-.25,4-.75,5-1.5,1-1.5,2c0,.5-3.5,3.25-7,3.25-1.75,0,1.75,2.75,1.75,2.75s0,2-2.5,5.75-3.75,4.5-4.75,3.5.75,1.75-.5,3.5-.75,4-1.5,4.75-5.75,1.25-3.75,2.75c1.5,1,.75,2.75-.5,4.25s-1.75,3.25-1.5,3.75.75.25,2.25-1.5,4-3.25,5.75-4.5,1.5-.25,2.5-.25,1-2,1-2,3.75-3.25,6.25-5.25,4.25-4,5.25-4,3,0,3.5-1.25,6.5-4.75,8-5.75a50,50,0,0,1,9-5c4.5-1.75,3.25,4.5,1.25,6-2.25,1.75-5.5.25-8,1.75l-5.25,3.25c-2.25,1.5-2.25,2-5.25,4s-3.25,2.25-4,2.25c-3-.5-6.75,4.75-6.75,4.75L837,260.45c-3.25,2.5-4.25,2.25-7.75,6.75-2.75,3.5-2,1.75-4.75,6.25-1.5,2.5-2.25,3.5-7-.75-3-2.75-3-6.5-2.25-10.25,1.25-5.75,6.25-12,9.75-18a28.19,28.19,0,0,1,3-4.5c1.5-1.5.5-3.5-1.75-1.25l-4.75,4.5c-1.75,2-5.25,8.25-6,5.75a6.19,6.19,0,0,0-3,3c-.75,2-2,2.25-2.75,2.25s.25,1.5-4,5.25c-6.75,6-10.25,9.5-17.75,13.75-2.5,1.5-8,3.5-10.5,0s-3-7-2.5-14.75c.5-6,9.5-31.5,15.5-28.5.5.25,1.75-1.5,1.5-3-.25-1.25,7.5-9,12.25-11.25C813.45,211,820.2,208,830,207c4.75-.5,13,.75,14.75,1.75a25.45,25.45,0,0,0,4.25,2,28.58,28.58,0,0,1,3.5-4C852.45,206.45,856.2,206.7,857.45,206.45ZM840.2,212.2a14.35,14.35,0,0,0-7.75-1.5c-4.75.25-13.5,3.75-16.5,7.5-5.25,6.75-4.75,1.25-6.75,3.75.25-.25-.25,4-1.75,4.25-2,.5-2.25,3.25-3,5.25-.25,1-2.5,2.75-3,3.5s-3.5-1.25-4.25-.25,2.5,2.75,1.5,4c-1.5,2-3,6-4,7-1.25,1.25-5,1.75-5.75,3.5s2.5,2,1.25,3.5-1,3.25-1.5,4.75c-.75,2.75-1.5,2.25-1,6,.25,1.75,2.5,3.25,5,1.25l6.75-5.75c1.25-1,2.25-2,3-2s.75-1.25.75-1.25,2-2,3.25-2.25,5.75-6.25,6.25-6.5,4.75-5,5.75-5,.75-.75,2.75-3,9.25-8.5,13.25-13.25c2.75-3.25,9-10.75,9-10.75A20.29,20.29,0,0,0,840.2,212.2Z"/><path class="cls-2" d="M878.2,210.2c2.75-1.25,3.5.25,8.75-3.25,9-6,8.75-.75,9,3.25.25,5,.75,4.5-2,10.25-1.25,2.5-1.5.75-2.75,2.5-1.5,2-.25,2.5-1.5,4-1,1.25-4.75,5.75-5.25,6.75s-2,.25-3.5,1,1.75,1.5,1.5,2a58.78,58.78,0,0,0-4.75,6.75c-.75,1.5.5,1.75,2.5-.5,2-2,8.25-7.5,8.25-7.5a2.44,2.44,0,0,0,2-.5c.5-.25.25-1.25.75-1.75,3.5-3.25,7.5-7.75,7.5-7.75C912.2,213,916.7,209,920,207.2c6.25-3.5,10.75-2.5,12,1.25,1.75,5.5,1.25,8.5-1,13-1,2,1.25,1.25-2,5.75-.75,1.25-1.75-1.25-2.5.25-.5,1-2.25,2-.5,2.5,2,.5-1.5,3.75-5.75,5.5S915,237,912,237.7s-1.25-2,.25-3.5c1-1,4.5-7.5,4.25-7,3.5-3.5,1.25-4.5,2.25-6s1.75-5,.5-5.75S911,219.2,909,221s-6,5.5-8.5,7.25-7.5,8.75-8.75,10a2.87,2.87,0,0,1-3.25.75c-1-.25-.5,3.25-1,3s-3.5,3.25-3.75,3.5-5.5,4.5-7.75,7.25-2.5,4.5-5,3.25c-1.5-.75.75,3.25.75,3.25a9.8,9.8,0,0,1-3.5,4.25c-4.5,2.5,0,1.25-2.75,5L861,273.7c-2,2.25-2.75.75-5.5-4.5-1.25-2.25-3-5.25-2.25-6.75s1.25-4,2-4.5c2-1.25,5-8.5,6-11,1.25-2.5,3-3.5,3.75-4.5a7.09,7.09,0,0,0,1-3.25c.5-1.25,4-.5,3.75-1-1.25-1.75-.5-3,.5-4.75,1.25-1.75,2-4.75,2.75-5.25s2.5-1,3.25-2.5c.5-1.25-1.5-2,1-3.25.25,0,2.25-3.75,4.75-6.5,2.75-2.75,1.25-3.75-.75-2.75-1.25,0-4.5,3-6,3.75-3,1.25-8-2.5-6.5-2.75C872.45,213.7,875.2,211.2,878.2,210.2Z"/><path class="cls-2" d="M1004,206.45c1.75-.25,7.25-1.75,8,.5.5,1.25-2.5,5.5-5,7.75-1.75,1.5-3.25,2-5,4s-1.5,4.5-3,6-2-1.5-2.75-2.25-.25,4-.75,5-1.5,1-1.5,2c0,.5-3.5,3.25-7,3.25-1.75,0,1.75,2.75,1.75,2.75s0,2-2.5,5.75-3.75,4.5-4.75,3.5.75,1.75-.5,3.5-.75,4-1.5,4.75-5.75,1.25-3.75,2.75c1.5,1,.75,2.75-.5,4.25s-1.75,3.25-1.5,3.75.75.25,2.25-1.5,4-3.25,5.75-4.5,1.5-.25,2.5-.25,1-2,1-2,3.75-3.25,6.25-5.25,4.25-4,5.25-4,3,0,3.5-1.25,6.5-4.75,8-5.75a50,50,0,0,1,9-5c4.5-1.75,3.25,4.5,1.25,6-2.25,1.75-5.5.25-8,1.75l-5.25,3.25c-2.25,1.5-2.25,2-5.25,4s-3.25,2.25-4,2.25c-3-.5-6.75,4.75-6.75,4.75l-5.75,4.25c-3.25,2.5-4.25,2.25-7.75,6.75-2.75,3.5-2,1.75-4.75,6.25-1.5,2.5-2.25,3.5-7-.75-3-2.75-3-6.5-2.25-10.25,1.25-5.75,6.25-12,9.75-18a28.19,28.19,0,0,1,3-4.5c1.5-1.5.5-3.5-1.75-1.25L968,243.2c-1.75,2-5.25,8.25-6,5.75a6.19,6.19,0,0,0-3,3c-.75,2-2,2.25-2.75,2.25s.25,1.5-4,5.25c-6.75,6-10.25,9.5-17.75,13.75-2.5,1.5-8,3.5-10.5,0s-3-7-2.5-14.75c.5-6,9.5-31.5,15.5-28.5.5.25,1.75-1.5,1.5-3-.25-1.25,7.5-9,12.25-11.25C960,211,966.7,208,976.45,207c4.75-.5,13,.75,14.75,1.75a25.45,25.45,0,0,0,4.25,2,28.58,28.58,0,0,1,3.5-4C999,206.45,1002.7,206.7,1004,206.45ZM986.7,212.2a14.35,14.35,0,0,0-7.75-1.5c-4.75.25-13.5,3.75-16.5,7.5-5.25,6.75-4.75,1.25-6.75,3.75.25-.25-.25,4-1.75,4.25-2,.5-2.25,3.25-3,5.25-.25,1-2.5,2.75-3,3.5s-3.5-1.25-4.25-.25,2.5,2.75,1.5,4c-1.5,2-3,6-4,7-1.25,1.25-5,1.75-5.75,3.5s2.5,2,1.25,3.5-1,3.25-1.5,4.75c-.75,2.75-1.5,2.25-1,6,.25,1.75,2.5,3.25,5,1.25L946,259c1.25-1,2.25-2,3-2s.75-1.25.75-1.25,2-2,3.25-2.25,5.75-6.25,6.25-6.5,4.75-5,5.75-5,.75-.75,2.75-3S977,230.45,981,225.7c2.75-3.25,9-10.75,9-10.75A20.29,20.29,0,0,0,986.7,212.2Z"/></g></svg>