<?xml version="1.0" encoding="utf-8"?>
<!-- Generator: Adobe Illustrator 22.1.0, SVG Export Plug-In . SVG Version: 6.00 Build 0)  -->
<svg version="1.1" id="Ebene_1" xmlns="http://www.w3.org/2000/svg" xmlns:xlink="http://www.w3.org/1999/xlink" x="0px" y="0px"
	 viewBox="0 0 1100 360" style="enable-background:new 0 0 1100 360;" xml:space="preserve">
<style type="text/css">
	.st0{fill:#4C0808;}
	.st1{fill:#FFFFFF;}
</style>
<g>
	<rect class="st0" width="1100" height="360"/>
	<g>
		<polygon class="st1" points="224.8,158.9 239.2,159.3 252.2,157.9 247.2,143.9 239.7,130.3 247.1,115.2 256.2,102.1 249.7,87.4 
			239.2,72.1 245.3,87.6 247.6,101.8 235.2,116.8 219.7,129.9 223.5,144.2 		"/>
	</g>
	<g>
		<polygon class="st1" points="316.4,221.6 316.2,236.2 316.9,250.6 331.7,244.4 345.3,234.9 358.3,247.1 373.4,256 386.7,244.5 
			401.3,236.2 387.5,241.2 373.7,244.5 359.8,231 345.2,217.4 331,218.5 		"/>
	</g>
	<g>
		<polygon class="st1" points="162.8,251.5 160.3,236.2 161.2,222.6 147.9,230.3 133.3,236.4 118.5,228 105.1,216.7 91.1,226.9 
			78.3,236.2 91,231.5 105.1,226.9 119.8,240.4 133.9,253.5 147.4,253.6 		"/>
	</g>
	<g>
		<polygon class="st1" points="174.2,192.6 183.6,180.6 192.5,171.6 179.6,164.4 162.9,162.2 160.2,144.7 158.7,126.8 141.1,123.8 
			123.1,120.1 138,127.3 149.3,135.4 152.2,154.5 151,174.4 162.6,182.5 		"/>
	</g>
	<g>
		<polygon class="st1" points="284.5,171.1 295,180.1 303.5,189.2 308.7,176 312.9,159.9 330.3,156.3 347.2,154.5 348.7,137.6 
			353.2,122 347.8,134.9 341.3,149.3 320.6,149.8 300.3,146.8 292.6,159.6 		"/>
	</g>
	<g>
		<polygon class="st0" points="324.3,235 323,253.7 315.5,270.9 307.3,287.9 292.9,300.1 277.3,310.4 259.1,314.3 241,316.9 
			222.4,316.6 204.7,310.5 189.4,299.7 177.6,285.5 166.6,270.8 159.9,253.5 158.9,235 160,216.5 166.8,199.3 176.6,183.7 
			189,169.8 205.6,161.6 222.4,153.6 241,150.2 259.4,154.4 276.5,161.2 291.5,171.6 306,183.2 314.6,199.6 320.5,216.9 		"/>
	</g>
	<g>
		<polygon class="st1" points="305.2,254.4 310.6,235 305.7,217.7 301.1,200.3 289.5,186.5 275.5,175.3 259.1,167.5 241,166.4 
			223.7,170.3 206.2,174.8 192.1,186.1 182.5,201.2 173.7,217 174.5,235 176,256.9 194.8,255.9 213.3,254.2 231.8,254.1 250.2,258 
			268.7,254.9 287.1,254.3 		"/>
	</g>
	<g>
		<path class="st1" d="M506.2,127.2c0.5-1,2-9.5,6.5-14c6-6.5,23-16.3,36.5-21.3c34.5-11,34-8.3,50.3-12c9.5-2.3,18.3-1.3,27.5-2.3
			c0.5,0,1.3,2.3,4,2.5c2,0.3,3-2.5,3.5-2.5c5.5-0.5,9.5-0.5,14-0.5c16.5,0,35.5,9.8,47,20.3c3.8,3.3,0.3,4.8,2,9.3
			c0.5,1,4.5,0.5,4.8,1.5l3,8.5c2,8,3,11.3,2.3,16c-1.3,8.5,0,6.8,0.3,9.3s-3,5-1.8,6.5s1.3,5.5,1.3,7.5s-8-0.3-6.5,1.8
			s8,0.3-1,17.3c-4.8,8.8-2.3,6.3-2.8,10.5s-3.3,6-3.3,6s-1.5,7-3.5,8.8s-3.8-0.5-8,6s-2.5,6.8-3,8.5s-0.8,3.8-2.5,4.3
			s-4,2.5-4.8,4.3s-1.5,3.5-3,4.8s-6,7.3-8.5,8.5s-8.8,0.5-7.5,2.5s2.5,3.8,2.3,3.8s-2.5,0.8-4.5,2.5c-2.5,2-11.8,7.3-12.3,7.3
			s-9,0.8-7.3,2.5c1.8,1.8-0.8,3.5-0.8,3.5s-2.8,2.8-10.3,8s-8.5-0.5-9.8,3s-3.8,3.8-3.8,3.8s-6-3.5-5.5-1.3s-2.5,3.5-2.5,3.5
			s-3.8,1.5-4.3,2s-26,3.8-30.3,4s-5-2.5-6-1c-2,3.5-10.5,2.5-11.8,3s-29.3,0.3-39.5-3.3s-17-6-16.5-7.3s-1.8-3-3.8-2.5
			s-11.8-3.8-19-15.3c-4.5-7-9.5-15.8-8.3-24.8c0.5-2.8,2.8-3.5,1-6.8c-2-3.8,3.8-17,3.8-17s10.3-18.5,31-28.3c0.3-0.5,2,3,4.5,0
			s2.5-4.3,5.8-6s21.8-5.8,30-7.3c13.8-2.5,28-1.5,38.5-1.3c1.8,0,5.8-9,7-11c11.5-18.3,11-11.8,12-12.3s2-5,2.8-8.5s10-8.3,17.3-17
			s16.5-15.5,25-19.8s9.3,0.3,8,0.8s-5,1.8-4.3,1.8s-2.5,4-4.3,4.8s-5,1-5.8,1.3s-1,3.8-2.8,5.5s-4.3,5.5-5.5,5.5s-1.8,3.8-1.8,3.8
			s-0.3,4.3-2.5,6.8S614,131,614,131s-4.3,0.8-3.8,2.5s-0.5,4.3-0.5,4.3s-2.8,6.3-6.3,9.8s-6,6.8-6,6.8l-5.8,13.3
			c0,0,14.8,2.5,26.3,8.8s14.5,12.3,16.5,18.3s0.8,9.5-1.8,6c-0.8-1.3-5-4.3-5.8-4.3s3-2,3-2s-3.5-3-5-2.8s-14.5-10.5-15-10.8
			s-9.3-4-21.5-7.8c-1.3-0.5-8,10.3-8,10.3s-3.3,3.8-5,3.8s-2,1.5-2,3.8s-1.3,6-1.3,5.5s-3.8,4-4.3,5s-3.5,2.3-5.3,6.5s-1.8,9-3,7.3
			s-2.3-1.3-2.8,1.3s-2.5,6.8-3,6.3s-5.5,5.8-5.5,6.5s-6.3,5.5-9.8,9.8s-4,5.8-4.3,6.3s-7,7-18.5,12.3c-11.5,5.3-22,6-22,6
			s-1.8-2,0.8-4.3s9.3-0.8,14.8-5c5.5-4.3,14-13.5,20-23.5c0.5,0,4.5,0.3,4.8-3.3s-0.3-2.8,2.8-7.8s7.5-11,7.3-10.5s1.8,1.3,3-3
			s3.8-6,4.3-6.8s4.5-8,9.3-14s6.8-11,8.5-12.8s-11.3-5.5-29.5-3c-20.5,2.8-25.8,7.5-33.3,12s-12.8,5.8-13.5,9.3s-1,6.5-3.3,5
			s-5-0.8-5.3,1s-0.8,4.5-0.8,4.5s1.5,1.5,0.5,2.8s-2.5,5.3-2.8,5.5l-4,5.8c0,0-2.5-3.5-3-1s-2.3,5.5-2.3,6.5s3.3-2,2.5,1
			s-2,9.8-2.5,9.8s1.5,6.8,0.5,8.5c-1.5,2.5,1.8,6.8,2.5,9.3s0.3,6.3,9,14.8c0.3,0.3-1.3,1-0.8,1.5c0.3,0.3,2.8,0.3,3,0.5
			c6,5,15.5,9.5,27.3,11.8c0.8,0.3,0.5,1.8,1.3,1.8s2.5-1,3.3-1c8,1.3,16.5,1,26-0.5c5-1,12.5-3.8,15-3c2.3,0.8,4.8-1,7-1.5
			c16.5-4,30.3-8.8,35.5-12c7.5-4.8,7.8-7.8,11.3-7.3s4.8,0,6-3.8s9.8-5.8,18.3-15s20.3-16.3,33.5-37.8c13-21,9.5-25.5,11.5-24.8
			s3.3-4,3.3-6.5s3.5-10,3.5-10s3.5-18,1.8-33.8c0-0.8,1.8-3,1.5-3.8c-0.3-1-2-0.5-2.3-1.5c-3.3-13.5-6.5-27.3-26.5-30
			c-2.5,0-5.3-4-9.3-4c-1.5,0-6.3,0.3-7.8,0.3c-27-0.5-32.5,1.5-40.5,3.3s-31,9.5-36,12.5c-5.8,3.5-8.3-3.8-9.3-1l-1.5,4.5
			c0,0,3.5,1.5-11,6.3c-1.3,0.3-4.8-1.5-4.8-1.5s-5.8,4.8-6.5,6c-8.5,10.3-8.5,3.8-9,5.3c-0.8,1.3-2,4.5-4,3.8
			c-2.3-0.3-1.3,0.5-4,4.3s-5,3.3-7.3,9l-4,8c-0.8,1.8-2,2.8-2.5-0.3C505.2,137.7,504.5,132,506.2,127.2z"/>
		<path class="st1" d="M713.7,191.2c8.3-3.8,12.8-4.3,17.5-4.5c3.5-0.3-2,10.8-3,12.5c-5.3,10.8-5.3,4.3-7,6.5c-0.5,0.5,1,1.5-1.5,5
			c-2.3,3-2.5,4-7,4.8c-2,0.3,1.8,2.3,1.8,2.3s-3,2.3-7.3,9.8c-2.8,4.8-3.8,9-5.5,9.5c-1.3,0.5-0.8,3-0.8,4c0,2.8,5.3-0.8,8-3.3
			c2.5-2.3,11.5-9.3,18-13.5c6.5-4,2.8-2.3,7.8-5c4.8-2.8,9.3-3.5,11.8-1c3.8,3.5,1.8,3.8,0,3.5s-5.3,0-7.3,1.3
			c-1.8,1.3-0.8-0.8-4,0.5c-3,1-3.3,2.8-6.5,3.3s0,1.3-1.5,2c-1.5,0.5-2.5,1.8-4.5,3.3c-2,1.8-3,0.8-3.3,0.5s-2.8,4.5-3.3,4.3
			s-2.8,1.8-4.5,3.8c-1.5,1.8-4.5,2-6,3.5c-1.8,1.8-3.8,2-8,7.5c-3.8,5-6,3.8-7.3,2.3s-2.5-2.3-3.3-6c-1-4.5-0.8-6.8,1.8-11.5
			c1.5-2.8,6.5-11,8.5-16c5.3-13.5,2.3-2.5,6.3-9l9.5-13.8c2.5-3.5,1-3.5-0.5-2.8c-2.3,1-4,1.5-6,2.8c-1.8,1.3-3.5,0-6.3-2.5
			S704.7,195.2,713.7,191.2z M742,153.2c3.3-5.3,4-3.3,5.5-8.8c0.8-2.5,1.8-4.8,2.3-6.3s1-2,2.5-2s2,3,3,4.3c2.8,3.5,7.8,4.3,4.8,9
			c-0.8,1.3-1.3,1-1.5,2.3s-0.3-0.8-2.8,2.5c-3,4.3-6.8,4.5-7.3,4.5c-0.3,0,0,1,0.3,1.3c-0.3,0-2.5,0.5-3.3,0.8s-3,0-4.8,1
			s-7,0-5.3-2.3C736.7,158,738.7,158.5,742,153.2z"/>
		<path class="st1" d="M729,244.2c0-6.3,11-22,11-22c1.8-1.5,8.3-10.5,10.8-16.8c1.3-3.5,7.3-9.5,11.3-14
			c4.3-4.8,8.5-13.3,11.5-18.3s10-13.5,16.5-23.5c1.5-2.3,1.3,2.3,3.3-5c1-3.8,3.8-5,5.8-7.8c16-21,25.8-35.3,29.5-35.3
			c1.8,0,2.3-3.8,4.3-5.5l4.5-4.3c0,0,11-11.8,20.5-17.8c11-7,21-9,26.3-9c4.8,0,8.5,2.3,8.8,2.8c0.3,1.3,0.3,2.3,0.3,3.3
			c0,1.5-0.3,2.3-1.3,2.3c-1.5,0-4.3-4-8.8-4c-5,0-12.3,3.3-12.8,3.5c-2,1.3-11.8,9-11.8,9.3v1c0,0.8-0.5,1-1,1.3
			c-4.5,1.5-5.8,6.5-6.3,6.5c-0.3,0-1-0.3-1.5-0.3c-0.3,0-0.5,0-0.5,0.5c0,0.8,0.3,1,0.3,1.3c0,1.8-4.8,3-4.8,4
			c0,0.8,0.3,1.3,0.3,1.3l-3,3.5c0.8-1-6.8,6-6.8,5.5v0.8c0-0.3-3.3,9-5.5,9c-0.8,0-1.3-0.8-1.5-0.8s-0.5,0.5-0.5,1.8
			c0,1.5-9.8,13.5-15,21.8c-1.5,2,0.3,2-5.5,9c-5.5,6.8-10.5,12.5-10.5,12.8s-3,0.8-3,2.5c0,4-0.8,2.5-2,5.5l-1.8,4
			c-2-2.3-7.3,13.3-9,12.8c0,0-2-1.3-3-1.3c-0.5,0-0.8,0.3-0.8,0.8c0,1.8,1,2.5,1,3.5c0,4-6.5,9.8-7.8,9.8c-0.3,1-1.8,2.8-2,2.8
			c-0.5,0-1-0.5-1.5-0.8c-0.3,0-0.5,0-0.5,0.3c0,0.5,0.5,1.5,0.8,1.8c0.3,2.5-6.3,6.8-6.3,8.3c0,2.8-3.5,9.8-4.3,9.5c0,0-0.3-1-1-1
			c-0.3,0-2.3,2.3-2.3,3.5c0,0.5,0.5,0.3,0.5,0.5s-0.3,0.8-1,1.8l-4.5,6.3h-1c-0.8,0-1.8,0.3-1.8,1.3c0,1.5,1.3,1.3,1.3,2
			c0,0.3-0.3,0.8-0.8,1.3c-3.8,3.8-5,8.5-5,8.8c0,0.8,0.5,1.3,1.3,1.5c2-1,4.8-3.5,8-5s3.5-3.5,5-4.5l8.8-6.3c3-2,4-2.5,8.3-5
			s4.8-3.8,8.5-5.8s11.5-4,13.8-1.8s6,4.8,2,4.5s-8.8,1.5-10,2.3s-4.5,0.3-6.3,0.5s-2.8,2-2.8,2s-7.8,4-11.5,6.3
			c-3.5,2-2.5,2.5-7,5.5l-2.8,0.8c-0.8,0.5-0.3,1.3-0.8,1.8c-4,3-4,4.5-9.8,8.8s-6,5-10,5S729,247.5,729,244.2z"/>
		<path class="st1" d="M857.5,186.5c1.8-0.3,7.3-1.8,8,0.5c0.5,1.3-2.5,5.5-5,7.8c-1.8,1.5-3.3,2-5,4s-1.5,4.5-3,6s-2-1.5-2.8-2.3
			s-0.3,4-0.8,5s-1.5,1-1.5,2c0,0.5-3.5,3.3-7,3.3c-1.8,0,1.8,2.8,1.8,2.8s0,2-2.5,5.8s-3.8,4.5-4.8,3.5s0.8,1.8-0.5,3.5
			s-0.8,4-1.5,4.8s-5.8,1.3-3.8,2.8c1.5,1,0.8,2.8-0.5,4.3s-1.8,3.3-1.5,3.8s0.8,0.3,2.3-1.5s4-3.3,5.8-4.5s1.5-0.3,2.5-0.3s1-2,1-2
			s3.8-3.3,6.3-5.3s4.3-4,5.3-4s3,0,3.5-1.3s6.5-4.8,8-5.8s4.8-3.3,9-5c4.5-1.8,3.3,4.5,1.3,6c-2.3,1.8-5.5,0.3-8,1.8l-5.3,3.3
			c-2.3,1.5-2.3,2-5.3,4s-3.3,2.3-4,2.3c-3-0.5-6.8,4.8-6.8,4.8l-5.8,4.3c-3.3,2.5-4.3,2.3-7.8,6.8c-2.8,3.5-2,1.8-4.8,6.3
			c-1.5,2.5-2.3,3.5-7-0.8c-3-2.8-3-6.5-2.3-10.3c1.3-5.8,6.3-12,9.8-18c0.8-1.3,2-3.5,3-4.5c1.5-1.5,0.5-3.5-1.8-1.3l-4.8,4.5
			c-1.8,2-5.3,8.3-6,5.8c0,0-2.3,1-3,3s-2,2.3-2.8,2.3s0.3,1.5-4,5.3c-6.8,6-10.3,9.5-17.8,13.8c-2.5,1.5-8,3.5-10.5,0
			c-2.5-3.5-3-7-2.5-14.8c0.5-6,9.5-31.5,15.5-28.5c0.5,0.3,1.8-1.5,1.5-3c-0.3-1.3,7.5-9,12.3-11.3c9.3-4.8,16-7.8,25.8-8.8
			c4.8-0.5,13,0.8,14.8,1.8s4,2,4.3,2c1.3-1.8,2.3-2.8,3.5-4C852.5,186.5,856.2,186.7,857.5,186.5z M840.2,192.2
			c-1.3-0.5-3.3-1.8-7.8-1.5c-4.8,0.3-13.5,3.8-16.5,7.5c-5.3,6.8-4.8,1.3-6.8,3.8c0.3-0.3-0.3,4-1.8,4.3c-2,0.5-2.3,3.3-3,5.3
			c-0.3,1-2.5,2.8-3,3.5s-3.5-1.3-4.3-0.3s2.5,2.8,1.5,4c-1.5,2-3,6-4,7c-1.3,1.3-5,1.8-5.8,3.5s2.5,2,1.3,3.5s-1,3.3-1.5,4.8
			c-0.8,2.8-1.5,2.3-1,6c0.3,1.8,2.5,3.3,5,1.3l6.8-5.8c1.3-1,2.3-2,3-2s0.8-1.3,0.8-1.3s2-2,3.3-2.3s5.8-6.3,6.3-6.5s4.8-5,5.8-5
			s0.8-0.8,2.8-3s9.3-8.5,13.3-13.3c2.8-3.3,9-10.8,9-10.8S841,192.5,840.2,192.2z"/>
		<path class="st1" d="M878.2,190.2c2.8-1.3,3.5,0.3,8.8-3.3c9-6,8.8-0.8,9,3.3c0.3,5,0.8,4.5-2,10.3c-1.3,2.5-1.5,0.8-2.8,2.5
			c-1.5,2-0.3,2.5-1.5,4c-1,1.3-4.8,5.8-5.3,6.8s-2,0.3-3.5,1s1.8,1.5,1.5,2s-3,3.5-4.8,6.8c-0.8,1.5,0.5,1.8,2.5-0.5
			c2-2,8.3-7.5,8.3-7.5s1.3,0.3,2-0.5c0.5-0.3,0.3-1.3,0.8-1.8c3.5-3.3,7.5-7.8,7.5-7.8c13.5-12.5,18-16.5,21.3-18.3
			c6.3-3.5,10.8-2.5,12,1.3c1.8,5.5,1.3,8.5-1,13c-1,2,1.3,1.3-2,5.8c-0.8,1.3-1.8-1.3-2.5,0.3c-0.5,1-2.3,2-0.5,2.5
			c2,0.5-1.5,3.8-5.8,5.5s-5.3,1.5-8.3,2.3s-1.3-2,0.3-3.5c1-1,4.5-7.5,4.3-7c3.5-3.5,1.3-4.5,2.3-6s1.8-5,0.5-5.8
			s-8.3,3.8-10.3,5.5s-6,5.5-8.5,7.3s-7.5,8.8-8.8,10s-2.3,1-3.3,0.8s-0.5,3.3-1,3s-3.5,3.3-3.8,3.5s-5.5,4.5-7.8,7.3
			s-2.5,4.5-5,3.3c-1.5-0.8,0.8,3.3,0.8,3.3s-1.3,3-3.5,4.3c-4.5,2.5,0,1.3-2.8,5l-4.5,5.3c-2,2.3-2.8,0.8-5.5-4.5
			c-1.3-2.3-3-5.3-2.3-6.8s1.3-4,2-4.5c2-1.3,5-8.5,6-11c1.3-2.5,3-3.5,3.8-4.5s0.8-2,1-3.3c0.5-1.3,4-0.5,3.8-1
			c-1.3-1.8-0.5-3,0.5-4.8c1.3-1.8,2-4.8,2.8-5.3s2.5-1,3.3-2.5c0.5-1.3-1.5-2,1-3.3c0.3,0,2.3-3.8,4.8-6.5c2.8-2.8,1.3-3.8-0.8-2.8
			c-1.3,0-4.5,3-6,3.8c-3,1.3-8-2.5-6.5-2.8C872.5,193.7,875.2,191.2,878.2,190.2z"/>
		<path class="st1" d="M1003.9,186.5c1.8-0.3,7.3-1.8,8,0.5c0.5,1.3-2.5,5.5-5,7.8c-1.8,1.5-3.3,2-5,4s-1.5,4.5-3,6s-2-1.5-2.8-2.3
			s-0.3,4-0.8,5s-1.5,1-1.5,2c0,0.5-3.5,3.3-7,3.3c-1.8,0,1.8,2.8,1.8,2.8s0,2-2.5,5.8s-3.8,4.5-4.8,3.5s0.8,1.8-0.5,3.5
			s-0.8,4-1.5,4.8s-5.8,1.3-3.8,2.8c1.5,1,0.8,2.8-0.5,4.3s-1.8,3.3-1.5,3.8s0.8,0.3,2.3-1.5s4-3.3,5.8-4.5s1.5-0.3,2.5-0.3s1-2,1-2
			s3.8-3.3,6.3-5.3s4.3-4,5.3-4s3,0,3.5-1.3s6.5-4.8,8-5.8s4.8-3.3,9-5c4.5-1.8,3.3,4.5,1.3,6c-2.3,1.8-5.5,0.3-8,1.8l-5.3,3.3
			c-2.3,1.5-2.3,2-5.3,4s-3.3,2.3-4,2.3c-3-0.5-6.8,4.8-6.8,4.8l-5.8,4.3c-3.3,2.5-4.3,2.3-7.8,6.8c-2.8,3.5-2,1.8-4.8,6.3
			c-1.5,2.5-2.3,3.5-7-0.8c-3-2.8-3-6.5-2.3-10.3c1.3-5.8,6.3-12,9.8-18c0.8-1.3,2-3.5,3-4.5c1.5-1.5,0.5-3.5-1.8-1.3l-4.8,4.5
			c-1.8,2-5.3,8.3-6,5.8c0,0-2.3,1-3,3s-2,2.3-2.8,2.3s0.3,1.5-4,5.3c-6.7,6-10.2,9.5-17.7,13.8c-2.5,1.5-8,3.5-10.5,0
			c-2.5-3.5-3-7-2.5-14.8c0.5-6,9.5-31.5,15.5-28.5c0.5,0.3,1.8-1.5,1.5-3c-0.3-1.3,7.5-9,12.2-11.3c9.3-4.8,16-7.8,25.8-8.8
			c4.8-0.5,13,0.8,14.8,1.8s4,2,4.3,2c1.3-1.8,2.3-2.8,3.5-4C998.9,186.5,1002.7,186.7,1003.9,186.5z M986.7,192.2
			c-1.3-0.5-3.3-1.8-7.8-1.5c-4.8,0.3-13.5,3.8-16.5,7.5c-5.3,6.8-4.8,1.3-6.8,3.8c0.3-0.3-0.3,4-1.8,4.3c-2,0.5-2.3,3.3-3,5.3
			c-0.3,1-2.5,2.8-3,3.5s-3.5-1.3-4.3-0.3s2.5,2.8,1.5,4c-1.5,2-3,6-4,7c-1.3,1.3-5,1.8-5.8,3.5s2.5,2,1.3,3.5s-1,3.3-1.5,4.8
			c-0.8,2.8-1.5,2.3-1,6c0.3,1.8,2.5,3.3,5,1.3l6.8-5.8c1.3-1,2.3-2,3-2c0.7,0,0.7-1.3,0.7-1.3s2-2,3.3-2.3s5.8-6.3,6.3-6.5
			s4.8-5,5.8-5s0.8-0.8,2.8-3s9.3-8.5,13.3-13.3c2.8-3.3,9-10.8,9-10.8S987.4,192.5,986.7,192.2z"/>
	</g>
</g>
</svg>
